<svg xmlns="http://www.w3.org/2000/svg" xmlns:xlink="http://www.w3.org/1999/xlink" width="46.786" height="46.421" viewBox="0 0 46.786 46.421"><defs><style>.a{fill:url(#a);}.b{fill:url(#b);}.c{fill:#dea861;}.d{fill:#cc8241;}.e{fill:url(#c);}.f{fill:#5fa01b;}.g{fill:url(#d);}.h{fill:#f2effa;}</style><linearGradient id="a" x1="0.383" y1="0.5" x2="0.52" y2="0.5" gradientUnits="objectBoundingBox"><stop offset="0" stop-color="#cc8241"/><stop offset="1" stop-color="#dea861"/></linearGradient><linearGradient id="b" x1="0.222" y1="0.231" x2="0.736" y2="0.728" gradientUnits="objectBoundingBox"><stop offset="0" stop-color="#dea861"/><stop offset="1" stop-color="#ebcba0"/></linearGradient><linearGradient id="c" x1="0.528" y1="0.463" x2="0.699" y2="0.236" gradientUnits="objectBoundingBox"><stop offset="0" stop-color="#345f07"/><stop offset="1" stop-color="#5fa01b"/></linearGradient><linearGradient id="d" x1="0.454" y1="0.411" x2="0.652" y2="0.179" gradientUnits="objectBoundingBox"><stop offset="0" stop-color="#c5baeb"/><stop offset="1" stop-color="#d7d1eb"/></linearGradient></defs><g transform="translate(-6.957 0)"><g transform="translate(6.957 0)"><g transform="translate(0 0)"><path class="a" d="M44.97,140.081V116.4l-38.013,1.63v23.684a1.6,1.6,0,0,0,.806,1.4L22.821,151.8a3.461,3.461,0,0,0,3.461,0l17.882-10.324a1.6,1.6,0,0,0,.806-1.4Z" transform="translate(-6.957 -105.844)"/><path class="b" d="M7.763,10.788,25.645.464a3.461,3.461,0,0,1,3.461,0L44.165,9.158a1.611,1.611,0,0,1,0,2.791L26.283,22.273a3.461,3.461,0,0,1-3.461,0L7.763,13.579a1.611,1.611,0,0,1,0-2.791Z" transform="translate(-6.957 0)"/><path class="c" d="M79.794,52.563,99,63.652l5.095-2.941L84.889,49.622Z" transform="translate(-73.19 -45.123)"/><g transform="translate(8.651 5.681)"><path class="d" d="M103.37,62.657l19.206,11.089-1,.576L102.372,63.233Z" transform="translate(-102.372 -62.657)"/><path class="d" d="M291.63,174.866v4.207l5.095-2.941v-4.207Z" transform="translate(-274.471 -162.018)"/></g></g></g><g transform="translate(34.808 13.533)"><path class="e" d="M329.237,151.559l-2.854-1.648c-1.374-.952-3.262-.9-5.33.423-3.752,2.392-6.782,8.239-6.9,13.314a8.126,8.126,0,0,0,1.3,5.093v0l4.619,5.907a.894.894,0,0,0,.281.241l2.863,1.653Z" transform="translate(-314.146 -149.261)"/><path class="f" d="M359.769,173.546c0-5.481-3.425-7.918-7.578-5.271-3.752,2.392-6.782,8.239-6.9,13.314a8.126,8.126,0,0,0,1.3,5.093v0l4.619,5.906c.648.829,1.99.054,2.638-1.523l4.619-11.24h0A17.126,17.126,0,0,0,359.769,173.546Z" transform="translate(-342.462 -165.575)"/><path class="g" d="M382.322,207.332l-2.131-1.227h0a3.144,3.144,0,0,0-3.1.3c-2.682,1.548-4.856,5.7-4.856,9.278,0,1.966.658,3.346,1.7,3.934v0l1.947,1.124Z" transform="translate(-366.969 -200.693)"/><ellipse class="h" cx="7.454" cy="4.217" rx="7.454" ry="4.217" transform="translate(5.33 18.557) rotate(-66.922)"/></g></g></svg>