<svg xmlns="http://www.w3.org/2000/svg" xmlns:xlink="http://www.w3.org/1999/xlink" width="52.988" height="46.343" viewBox="0 0 52.988 46.343"><defs><style>.a{fill:url(#a);}.b{fill:url(#b);}.c{fill:#dea861;}.d{fill:#cc8241;}.e{fill:url(#c);}.f{fill:#5fa01b;}.g{fill:#f2effa;}</style><linearGradient id="a" x1="0.383" y1="0.5" x2="0.52" y2="0.5" gradientUnits="objectBoundingBox"><stop offset="0" stop-color="#cc8241"/><stop offset="1" stop-color="#dea861"/></linearGradient><linearGradient id="b" x1="0.222" y1="0.231" x2="0.736" y2="0.728" gradientUnits="objectBoundingBox"><stop offset="0" stop-color="#dea861"/><stop offset="1" stop-color="#ebcba0"/></linearGradient><linearGradient id="c" x1="0.528" y1="0.463" x2="0.699" y2="0.236" gradientUnits="objectBoundingBox"><stop offset="0" stop-color="#345f07"/><stop offset="1" stop-color="#5fa01b"/></linearGradient></defs><g transform="translate(0 -15.639)"><g transform="translate(0 15.639)"><path class="a" d="M37.95,148.569V124.925L0,126.552V150.2a1.593,1.593,0,0,0,.8,1.393l15.033,8.679a3.456,3.456,0,0,0,3.456,0l17.852-10.307a1.593,1.593,0,0,0,.8-1.393Z" transform="translate(0 -114.39)"/><path class="b" d="M.8,26.409,18.656,16.1a3.456,3.456,0,0,1,3.456,0l15.033,8.68a1.608,1.608,0,0,1,0,2.786L19.293,37.874a3.456,3.456,0,0,1-3.456,0L.8,29.195a1.608,1.608,0,0,1,0-2.786Z" transform="translate(0 -15.639)"/><path class="c" d="M68.387,65.166l19.174,11.07L92.647,73.3,73.473,62.229Z" transform="translate(-61.794 -57.738)"/><g transform="translate(8.636 5.671)"><path class="d" d="M90.582,74.468l19.174,11.07-1,.575L89.586,75.043Z" transform="translate(-89.586 -74.468)"/><path class="d" d="M267.283,180v4.2l5.086-2.937v-4.2Z" transform="translate(-250.153 -167.171)"/></g></g><g transform="translate(27.602 28.607)"><path class="e" d="M305.069,158.653h0l-3.959-2.279h0c-1.563-.828-3.57-.71-5.761.554-4.983,2.877-9.023,10.6-9.023,17.24,0,3.653,1.223,6.217,3.15,7.311v0l3.617,2.088,0-.008c1.59.95,3.676.882,5.962-.438,4.983-2.877,9.023-10.6,9.023-17.24C308.081,162.319,306.917,159.789,305.069,158.653Z" transform="translate(-286.326 -155.298)"/><g transform="translate(0.106 25.488) rotate(-66.922)"><ellipse class="f" cx="13.852" cy="7.837" rx="13.852" ry="7.837" transform="translate(0 0)"/><ellipse class="g" cx="9.999" cy="5.657" rx="9.999" ry="5.657" transform="translate(3.853 2.18)"/><ellipse class="f" cx="1.936" cy="1.095" rx="1.936" ry="1.095" transform="translate(11.916 6.741)"/></g><g transform="translate(12.241 8.851)"><path class="f" d="M413.3,249.77v-7.305a.491.491,0,1,1,.983,0v5.6l3.99-2.3a.491.491,0,1,1,.491.851Z" transform="translate(-413.303 -241.974)"/></g></g></g></svg>